Coordinates
version=1
nRows=23
nColumns=27
inDegrees=yes

Units are S.I. units (second, meters, Newtons, ...)
If the header above contains a line with 'inDegrees', this indicates whether rotational values are in degrees (yes) or radians (no).

endheader
time	pelvis_rotation	pelvis_tilt	pelvis_list	pelvis_tx	pelvis_ty	pelvis_tz	hip_flexion_r	hip_adduction_r	hip_rotation_r	knee_angle_r	knee_rotation_r	knee_adduction_r	knee_angle_r_beta	ankle_angle_r	subtalar_angle_r	mtp_angle_r	hip_flexion_l	hip_adduction_l	hip_rotation_l	knee_angle_l	knee_rotation_l	knee_adduction_l	knee_angle_l_beta	ankle_angle_l	subtalar_angle_l	mtp_angle_l
      4.26000000	     12.30566846	    -36.69576940	      6.54062741	     -0.07547138	      0.56839092	     -1.17697916	    118.05031295	    -44.17985340	     14.75090870	     93.28889253	      0.00000000	      9.69997079	      1.62819833	     11.71932434	      0.00000000	      0.00000000	    112.25784876	    -19.15561297	     10.33701857	     85.61058572	      0.00000000	     -9.88559649	      1.49418660	      8.02244820	      0.00000000	      0.00000000
      4.26500000	     11.74376773	    -36.76586508	      6.51813581	     -0.07625271	      0.56967876	     -1.17696342	    117.90363362	    -43.39626216	     14.75671259	     93.01423287	      0.00000000	      9.44223239	      1.62340461	     11.52514969	      0.00000000	      0.00000000	    112.05071491	    -19.69853966	     10.12725957	     85.39635245	      0.00000000	     -9.78261930	      1.49044752	      8.01291661	      0.00000000	      0.00000000
      4.27000000	     12.36450148	    -36.73526912	      6.50793738	     -0.07637294	      0.57083142	     -1.17747340	    117.64011235	    -44.29225209	     14.32153851	     92.82267189	      0.00000000	      9.68772664	      1.62006125	     11.58951622	      0.00000000	      0.00000000	    111.99802794	    -18.91022019	     10.28696590	     85.21117867	      0.00000000	     -9.88220004	      1.48721563	      7.92474869	      0.00000000	      0.00000000
      4.27500000	     12.29646776	    -36.77870847	      6.58420168	     -0.07686380	      0.57204470	     -1.17767716	    117.56076564	    -44.14593274	     14.28752655	     92.60117973	      0.00000000	      9.67930301	      1.61619548	     11.49571016	      0.00000000	      0.00000000	    111.82765916	    -18.94648499	     10.12779031	     85.00293765	      0.00000000	     -9.88124131	      1.48358114	      7.88795514	      0.00000000	      0.00000000
      4.28000000	     12.26768842	    -36.81108780	      6.60866213	     -0.07732726	      0.57320779	     -1.17789019	    117.43299253	    -44.09403771	     14.16744180	     92.38553019	      0.00000000	      9.67298120	      1.61243168	     11.40120590	      0.00000000	      0.00000000	    111.68656656	    -18.91498564	     10.03795518	     84.80603215	      0.00000000	     -9.87964828	      1.48014449	      7.84528558	      0.00000000	      0.00000000
      4.28500000	     12.22955417	    -36.81108560	      6.60351038	     -0.07776546	      0.57438954	     -1.17808503	    117.22422063	    -44.05059669	     13.99844743	     92.16014549	      0.00000000	      9.66613614	      1.60849798	     11.34682224	      0.00000000	      0.00000000	    111.52268878	    -18.88492655	      9.97393473	     84.60759552	      0.00000000	     -9.87829666	      1.47668111	      7.78715149	      0.00000000	      0.00000000
      4.29000000	     12.23034724	    -36.82821159	      6.62212851	     -0.07820436	      0.57551302	     -1.17828928	    117.07725098	    -44.04412458	     13.86126564	     91.94768441	      0.00000000	      9.65926013	      1.60478983	     11.24731241	      0.00000000	      0.00000000	    111.37594467	    -18.81661747	      9.90771388	     84.41559796	      0.00000000	     -9.87683409	      1.47333012	      7.77114712	      0.00000000	      0.00000000
      4.29500000	     11.48803134	    -36.72546770	      6.56705560	     -0.07889951	      0.57684915	     -1.17814085	    116.71313861	    -43.07594697	     13.88168737	     91.64997265	      0.00000000	      9.36038328	      1.59959378	     11.12215251	      0.00000000	      0.00000000	    110.95285916	    -19.56985870	      9.61401818	     84.18219954	      0.00000000	     -9.76801712	      1.46925655	      7.68210840	      0.00000000	      0.00000000
      4.30000000	     12.14730557	    -36.83357083	      6.66718704	     -0.07906397	      0.57779708	     -1.17857068	    116.73265707	    -43.89069237	     13.62701433	     91.52363719	      0.00000000	      9.64192027	      1.59738881	     11.14615382	      0.00000000	      0.00000000	    111.03818626	    -18.81148504	      9.70816812	     84.01626791	      0.00000000	     -9.87423355	      1.46636050	      7.63020147	      0.00000000	      0.00000000
      4.30500000	     11.51467608	    -36.74413000	      6.58686289	     -0.07971251	      0.57904779	     -1.17843094	    116.37716409	    -43.07418829	     13.59801175	     91.24507316	      0.00000000	      9.33740779	      1.59252695	     11.00300802	      0.00000000	      0.00000000	    110.66586921	    -19.42268622	      9.49585341	     83.79209096	      0.00000000	     -9.76305847	      1.46244787	      7.57567236	      0.00000000	      0.00000000
      4.31000000	     12.19089349	    -36.80481503	      6.67500919	     -0.07980703	      0.57995423	     -1.17888329	    116.33555688	    -43.92993344	     13.32321473	     91.11722285	      0.00000000	      9.62832725	      1.59029554	     11.02002514	      0.00000000	      0.00000000	    110.71409613	    -18.64440038	      9.60657871	     83.63400539	      0.00000000	     -9.87138541	      1.45968876	      7.54325344	      0.00000000	      0.00000000
      4.31500000	     11.48907572	    -36.71762862	      6.59446188	     -0.08050294	      0.58117601	     -1.17866057	    115.99051856	    -43.00345905	     13.33751148	     90.84187228	      0.00000000	      9.30912293	      1.58548977	     10.89012955	      0.00000000	      0.00000000	    110.33204102	    -19.33481289	      9.37408943	     83.41131343	      0.00000000	     -9.75836189	      1.45580205	      7.48641871	      0.00000000	      0.00000000
      4.32000000	     12.34503742	    -36.78129733	      6.63434771	     -0.08051893	      0.58203001	     -1.17914586	    115.88384256	    -44.12226538	     12.90944947	     90.71998775	      0.00000000	      9.61736925	      1.58336248	     10.91077456	      0.00000000	      0.00000000	    110.45308544	    -18.34003992	      9.61630877	     83.25650785	      0.00000000	     -9.86826885	      1.45310019	      7.44822028	      0.00000000	      0.00000000
      4.32500000	     12.27884377	    -36.78845933	      6.65523649	     -0.08088764	      0.58301981	     -1.17920573	    115.74279417	    -43.99942989	     12.83121263	     90.53955004	      0.00000000	      9.60912044	      1.58021325	     10.86732649	      0.00000000	      0.00000000	    110.30324023	    -18.38301101	      9.51444597	     83.07743444	      0.00000000	     -9.86744410	      1.44997477	      7.39745681	      0.00000000	      0.00000000
      4.33000000	     12.32082992	    -36.78755959	      6.67944117	     -0.08121658	      0.58399257	     -1.17929060	    115.59061338	    -44.01587173	     12.71806554	     90.36310478	      0.00000000	      9.59970174	      1.57713370	     10.81177696	      0.00000000	      0.00000000	    110.16419085	    -18.30179164	      9.45687337	     82.89640071	      0.00000000	     -9.86611017	      1.44681513	      7.35250064	      0.00000000	      0.00000000
      4.33500000	     12.33508521	    -36.73743484	      6.68594849	     -0.08150242	      0.58495002	     -1.17936828	    115.37011752	    -44.02002798	     12.59018572	     90.18498165	      0.00000000	      9.59533380	      1.57402487	     10.76837943	      0.00000000	      0.00000000	    109.97669285	    -18.24181254	      9.40132186	     82.71682449	      0.00000000	     -9.86498028	      1.44368093	      7.30808412	      0.00000000	      0.00000000
      4.34000000	     11.27834194	    -36.67824862	      6.43482542	     -0.08218429	      0.58609367	     -1.17899987	    114.91748421	    -42.71726662	     12.53582125	     89.89601876	      0.00000000	      9.24063724	      1.56898151	     10.61657281	      0.00000000	      0.00000000	    109.65346414	    -19.29055815	      9.20001714	     82.54867123	      0.00000000	     -9.74834306	      1.44074611	      7.21883542	      0.00000000	      0.00000000
      4.34500000	     12.32074487	    -36.68729527	      6.74080058	     -0.08208345	      0.58677784	     -1.17947148	    115.05321784	    -43.93268443	     12.43335420	     89.85612798	      0.00000000	      9.57829796	      1.56828529	     10.66358003	      0.00000000	      0.00000000	    109.63725520	    -18.20004569	      9.24154964	     82.36799983	      0.00000000	     -9.86282557	      1.43759280	      7.20752069	      0.00000000	      0.00000000
      4.35000000	     12.43063199	    -36.66077433	      6.73044743	     -0.08228085	      0.58767214	     -1.17954889	    114.83167840	    -44.06116167	     12.24948307	     89.69353634	      0.00000000	      9.57282791	      1.56544753	     10.63942225	      0.00000000	      0.00000000	    109.51154084	    -18.03047085	      9.25202369	     82.20579136	      0.00000000	     -9.86142974	      1.43476172	      7.18228707	      0.00000000	      0.00000000
      4.35500000	     11.69880294	    -36.56900683	      6.71108034	     -0.08282181	      0.58868804	     -1.17925477	    114.60497303	    -43.05870891	     12.43646678	     89.47198183	      0.00000000	      9.22586175	      1.56158067	     10.52386130	      0.00000000	      0.00000000	    109.11161843	    -18.80033960	      8.92520893	     82.00908642	      0.00000000	     -9.74135224	      1.43132857	      7.11937237	      0.00000000	      0.00000000
      4.36000000	     12.49587423	    -36.60318077	      6.72670286	     -0.08270291	      0.58942242	     -1.17964779	    114.43352068	    -44.10338237	     11.98684820	     89.37884982	      0.00000000	      9.56004219	      1.55995521	     10.57809674	      0.00000000	      0.00000000	    109.21717398	    -17.88084646	      9.19322068	     81.87844619	      0.00000000	     -9.85918617	      1.42904847	      7.08915055	      0.00000000	      0.00000000
      4.36500000	     12.51425553	    -36.57915683	      6.75216797	     -0.08289116	      0.59024209	     -1.17968713	    114.27882862	    -44.09336189	     11.90772846	     89.23189885	      0.00000000	      9.55111497	      1.55739043	     10.54612178	      0.00000000	      0.00000000	    109.06427445	    -17.83143887	      9.13662968	     81.72338766	      0.00000000	     -9.85827377	      1.42634219	      7.04668957	      0.00000000	      0.00000000
      4.37000000	     12.52756426	    -36.53483868	      6.74169456	     -0.08302674	      0.59108581	     -1.17971631	    114.05432302	    -44.09029278	     11.78242172	     89.08483150	      0.00000000	      9.54677038	      1.55482362	     10.52948338	      0.00000000	      0.00000000	    108.89987005	    -17.78074412	      9.10591771	     81.57010619	      0.00000000	     -9.85743647	      1.42366692	      7.02587842	      0.00000000	      0.00000000
